<svg xmlns="http://www.w3.org/2000/svg" viewBox="0 0 65.71 46"><defs><style>.cls-1{fill:#178faf;}.cls-2{fill:#6b44b8;}</style></defs><g id="Arquivos"><path class="cls-1" d="M17.7,6.32h0a3.2,3.2,0,0,0-3.2-3.2H7.39a3.2,3.2,0,0,0-3.2,3.2V39.38a3.19,3.19,0,0,0,3.2,3.19H50.71a3.19,3.19,0,0,0,3.2-3.19V12.7a3.19,3.19,0,0,0-3.2-3.19H20.89A3.19,3.19,0,0,1,17.7,6.32Z"/><path class="cls-1" d="M50.71,43.22H7.39a3.84,3.84,0,0,1-3.84-3.84V6.32A3.84,3.84,0,0,1,7.39,2.48H14.5A3.82,3.82,0,0,1,18.34,6.3a2.55,2.55,0,0,0,2.55,2.56H50.71a3.84,3.84,0,0,1,3.84,3.84V39.38A3.84,3.84,0,0,1,50.71,43.22Z"/><path class="cls-2" d="M50.71,43.22H7.39L7,43.2a3.63,3.63,0,0,1-3.11-2.51A4,4,0,0,1,4,38l6.12-15.93a8.24,8.24,0,0,0,.45-1.54,3.84,3.84,0,0,1,3.78-3.2H57.71A3.71,3.71,0,0,1,61.54,21a1.62,1.62,0,0,1-.09.51L54.79,38.87a7,7,0,0,0-.31,1.22A3.82,3.82,0,0,1,50.71,43.22Z"/></g></svg>