<svg xmlns="http://www.w3.org/2000/svg" viewBox="0 0 34 42.09"><defs><style>.cls-1{fill:#999;}.cls-2{fill:#a8a8a8;}</style></defs><g id="Arquivos"><path class="cls-1" d="M17.15,9.53H5.22L8.08,36.41a3.16,3.16,0,0,0,3.14,2.83H23.08a3.16,3.16,0,0,0,3.14-2.83L29.08,9.53Z"/><path class="cls-2" d="M14.83,12.18l1.29,23.5a1,1,0,0,0,1,.91h0a1,1,0,0,0,1-.91l1.27-23.5Z"/><path class="cls-2" d="M22.3,12.18l-.59,23.38a1,1,0,0,0,.93,1h0a1,1,0,0,0,1.07-.82L26.9,12.18Z"/><path class="cls-2" d="M11.93,12.18l.6,23.38a1,1,0,0,1-.93,1h0a1,1,0,0,1-1.08-.82L7.37,12.18Z"/><path class="cls-1" d="M30.33,6.56H20.58V3.31a.52.52,0,0,0-.53-.52H14.17a.52.52,0,0,0-.53.52V6.56H4a.8.8,0,0,0-.8.81v.75a.8.8,0,0,0,.8.8H30.33a.8.8,0,0,0,.8-.8V7.37A.8.8,0,0,0,30.33,6.56ZM14.93,4.07h4.36V6.56H14.93Z"/></g></svg>